<?xml version="1.0" encoding="UTF-8" standalone="no"?>
<!-- Created with Inkscape (http://www.inkscape.org/) -->

<svg
   xmlns:dc="http://purl.org/dc/elements/1.1/"
   xmlns:cc="http://creativecommons.org/ns#"
   xmlns:rdf="http://www.w3.org/1999/02/22-rdf-syntax-ns#"
   xmlns:svg="http://www.w3.org/2000/svg"
   xmlns="http://www.w3.org/2000/svg"
   xmlns:sodipodi="http://sodipodi.sourceforge.net/DTD/sodipodi-0.dtd"
   xmlns:inkscape="http://www.inkscape.org/namespaces/inkscape"
   id="svg3406"
   height="80"
   viewBox="0 0 340 80"
   width="340"
   version="1.1"
   sodipodi:docname="logo.svg"
   inkscape:export-filename="/home/hayek/Downloads/godlike/godlike/dist/godlike/assets/images/logo.svg.png"
   inkscape:export-xdpi="96"
   inkscape:export-ydpi="96"
   inkscape:version="0.92.3 (2405546, 2018-03-11)">
  <defs
     id="defs7" />
  <sodipodi:namedview
     pagecolor="#ffffff"
     bordercolor="#666666"
     borderopacity="1"
     objecttolerance="10"
     gridtolerance="10"
     guidetolerance="10"
     inkscape:pageopacity="0"
     inkscape:pageshadow="2"
     inkscape:window-width="1920"
     inkscape:window-height="1031"
     id="namedview5"
     showgrid="false"
     inkscape:zoom="1.6647059"
     inkscape:cx="100.88453"
     inkscape:cy="87.464565"
     inkscape:window-x="0"
     inkscape:window-y="0"
     inkscape:window-maximized="1"
     inkscape:current-layer="svg3406" />
  <metadata
     id="metadata3412">
    <rdf:RDF>
      <cc:Work
         rdf:about="">
        <dc:format>image/svg+xml</dc:format>
        <dc:type
           rdf:resource="http://purl.org/dc/dcmitype/StillImage" />
        <dc:title></dc:title>
      </cc:Work>
    </rdf:RDF>
  </metadata>
  <g
     aria-label="DEMIURGOS"
     style="font-style:normal;font-weight:normal;font-size:40px;line-height:1.25;font-family:sans-serif;letter-spacing:0px;word-spacing:0px;fill:#ffffff;fill-opacity:1;stroke:none"
     id="text822"
     transform="matrix(1,0,0,1.0446175,13.375085,148.24725)">
    <path
       d="m -10.57097,-112.3066 q 0,-5.856 -0.288,-12.672 -0.192,-6.912 -0.384,-12.864 3.4559999,0.288 6.6239999,0.48 3.168,0.192 5.56799998,0.192 1.34400002,0 2.49600002,-0.096 1.248,-0.096 2.592,-0.192 1.344,-0.096 2.592,-0.096 1.344,-0.096 2.5920001,-0.096 6.432,0 11.04,2.208 4.608,2.208 7.488,6.336 2.976,4.128 4.32,10.08 1.44,5.856 1.44,13.248 0,9.599999 -2.592,16.223999 -2.496,6.528 -6.432,10.656 -3.84,4.032 -8.544,5.856 -4.704,1.728 -9.0240001,1.728 -1.152,0 -2.4,-0.096 -1.152,0 -2.304,-0.096 -1.152,-0.096 -2.304,-0.192 -1.05600002,-0.096 -2.20800002,-0.096 -2.20799998,0 -4.99199998,0.192 -2.784,0.192 -5.9519999,0.48 0.192,-5.952 0.384,-12.768 0.288,-6.912 0.288,-12.768 z m 9.1199999,15.647999 q 0,4.896 0.096,9.024 0.096,4.032 0.288,8.736 1.34399998,0.288 3.168,0.48 1.92,0.096 4.032,0.096 3.36,0 6.7200001,-1.056 3.456,-1.152 6.144,-4.128 2.784,-3.072 4.416,-8.448 1.728,-5.376 1.728,-13.823999 0,-7.296 -1.344,-12 -1.248,-4.8 -3.648,-7.488 -2.304,-2.784 -5.568,-3.84 -3.168,-1.056 -6.9120001,-1.056 -2.496,0 -4.704,0.192 -2.11200002,0.192 -4.032,0.384 -0.192,4.128 -0.288,8.448 -0.096,4.32 -0.096,8.832 z"
       style="font-style:normal;font-variant:normal;font-weight:bold;font-stretch:normal;font-size:96px;font-family:'Oregon LDO Condensed';-inkscape-font-specification:'Oregon LDO Condensed, Bold';font-variant-ligatures:normal;font-variant-caps:normal;font-variant-numeric:normal;font-feature-settings:normal;text-align:start;letter-spacing:1.49000001px;word-spacing:0px;writing-mode:lr-tb;text-anchor:start;fill:#ffffff;fill-opacity:1"
       id="path1493"
       inkscape:connector-curvature="0" />
    <path
       d="m 42.075031,-103.3786 q 0,-4.55467 -0.149333,-9.856 -0.149333,-5.30133 -0.298667,-9.856 2.389334,0.14933 5.450667,0.29867 3.061333,0.14933 5.450666,0.14933 1.194667,0 2.688,0 1.493334,-0.0747 2.986667,-0.14933 1.493333,-0.0747 2.912,-0.14934 1.493333,-0.14933 2.688,-0.224 -0.373334,1.86667 -0.448,2.61334 -0.07467,0.672 -0.07467,1.04533 0,0.52267 0.07467,1.19467 0.07467,0.672 0.448,2.53866 -0.373334,0 -1.045334,-0.0747 -0.672,-0.0747 -1.418666,-0.14934 -0.672,-0.0747 -1.344,-0.14933 -0.597333,-0.0747 -0.896,-0.0747 -1.12,-0.14933 -2.090667,-0.224 -0.970666,-0.14933 -2.016,-0.224 -1.045333,-0.14933 -2.389333,-0.14933 -1.269333,-0.0747 -3.061333,-0.0747 0,0.59734 -0.07467,0.82134 0,0.224 0,0.82133 -0.07467,1.41867 -0.149333,2.83733 0,1.41867 0,3.136 v 7.91467 q 3.808,-0.0747 7.093333,-0.29867 3.36,-0.29866 6.197333,-0.672 -0.298667,1.49334 -0.448,2.464003 -0.149333,0.896 -0.149333,1.344 0,0.672 0.672,3.882666 -4.032,-0.597333 -7.616,-0.746666 -3.584,-0.149334 -5.749333,-0.224 v 8.810666 q 0,4.032 -0.07467,5.973333 0,1.941333 0.07467,3.210667 3.36,0 7.317333,-0.224 3.957333,-0.298667 7.541333,-1.12 -0.298667,1.493333 -0.522667,2.613333 -0.149333,1.045333 -0.149333,1.418667 0,0.373333 0.149333,1.269333 0.149334,0.896 0.448,2.389333 -1.194666,-0.07467 -2.688,-0.224 -1.418666,-0.07467 -2.986666,-0.149333 -1.493333,-0.07467 -2.986667,-0.149333 -1.493333,0 -2.688,0 -2.389333,0 -5.599999,0.149333 -3.136,0.149333 -5.525334,0.298667 0.149334,-4.704 0.298667,-10.005333 0.149333,-5.301334 0.149333,-9.856 z"
       style="font-size:74.66666412px;fill:#ffffff;fill-opacity:1"
       id="path1495"
       inkscape:connector-curvature="0" />
    <path
       d="m 75.983197,-123.91193 q 1.792,5.00266 3.434667,9.48266 1.717333,4.40534 3.434666,8.81067 1.717333,4.33067 3.509333,8.810666 1.792,4.48 3.808,9.408 0.896,-2.314667 2.165333,-5.376 1.269334,-3.061333 2.688,-6.645333 1.194667,-2.912003 2.464,-6.122663 1.344,-3.21067 2.613334,-6.42134 1.344,-3.21066 2.53867,-6.272 1.26933,-3.06133 2.31466,-5.67466 h 2.912 q 0.52267,5.152 0.97067,10.60266 0.448,5.376 0.82133,10.08 0.29867,3.733336 0.672,7.914669 0.37334,4.106667 0.74667,8.362667 0.37333,4.181333 0.74667,8.287999 0.448,4.106667 0.82133,7.616 -1.41867,-0.373333 -2.53867,-0.597333 -1.04533,-0.149333 -1.64266,-0.149333 -0.59734,0 -1.568,0.149333 -0.97067,0.224 -2.24,0.522667 -0.52267,-7.989334 -1.04534,-16.202667 -0.52266,-8.287999 -1.26933,-16.202662 -3.061334,7.541329 -6.197334,15.605329 -3.136,8.064 -5.749333,16.128 H 88.00453 q -2.016,-5.6 -4.405333,-11.722667 -2.314667,-6.197333 -4.554667,-12.021333 -0.746666,-1.866666 -1.493333,-3.808 -0.672,-1.941329 -1.418667,-3.882669 -0.373333,4.181336 -0.746666,8.810669 -0.373334,4.629334 -0.672,9.034667 -0.298667,4.405333 -0.522667,8.213333 -0.149333,3.733333 -0.149333,6.272 -1.269334,-0.373334 -2.090667,-0.672 -0.821333,-0.224 -1.12,-0.224 -0.373333,0 -1.344,0.298666 -0.896,0.298667 -2.24,0.672 0.672,-5.824 1.418667,-12.767999 0.821333,-6.944 1.568,-14.037333 0.746666,-7.093333 1.418666,-13.888003 0.672,-6.79466 1.12,-12.39466 z"
       style="font-size:74.66666412px;fill:#ffffff;fill-opacity:1"
       id="path1497"
       inkscape:connector-curvature="0" />
    <path
       d="m 118.69386,-103.30393 q 0,-2.24 -0.0747,-4.77867 0,-2.61333 -0.0747,-5.22667 -0.0747,-2.61333 -0.224,-5.152 -0.0747,-2.61333 -0.14933,-4.928 1.344,0.37334 2.38933,0.59734 1.12,0.14933 1.71733,0.14933 0.59734,0 1.64267,-0.14933 1.12,-0.224 2.464,-0.59734 -0.0747,2.31467 -0.224,4.928 -0.0747,2.53867 -0.14933,5.152 -0.0747,2.61334 -0.14934,5.22667 0,2.53867 0,4.77867 v 12.170663 q 0,2.239999 0,4.853333 0.0747,2.538666 0.14934,5.152 0.0747,2.613333 0.14933,5.226666 0.14933,2.538667 0.224,4.778667 -1.344,-0.298667 -2.464,-0.522667 -1.04533,-0.149333 -1.64267,-0.149333 -0.59733,0 -1.71733,0.149333 -1.04533,0.224 -2.38933,0.522667 0.0747,-2.24 0.14933,-4.778667 0.14933,-2.613333 0.224,-5.226666 0.0747,-2.613334 0.0747,-5.152 0.0747,-2.613334 0.0747,-4.853333 z"
       style="font-size:74.66666412px;fill:#ffffff;fill-opacity:1"
       id="path1499"
       inkscape:connector-curvature="0" />
    <path
       d="m 159.9182,-98.599934 q 0,-5.002666 0,-8.810666 0,-3.88267 -0.0747,-6.86933 -0.0747,-2.98667 -0.14933,-5.22667 -0.0747,-2.24 -0.29867,-4.032 1.344,0.37333 2.31467,0.672 1.04533,0.224 1.49333,0.224 0.29867,0 1.12,-0.29867 0.82133,-0.37333 2.016,-0.82133 -0.14933,2.464 -0.37333,6.272 -0.14934,3.73333 -0.29867,8.064 -0.14933,4.33067 -0.29867,8.81067 -0.0747,4.479996 -0.0747,8.362663 -0.0747,5.002666 -1.19467,9.034666 -1.12,3.957333 -3.28533,6.794666 -2.09067,2.837334 -5.152,4.405334 -3.06134,1.493333 -6.944,1.493333 -8.66134,0 -12.61867,-5.226667 -3.95733,-5.301333 -3.95733,-16.351999 0,-1.792 0,-3.285333 0.0747,-1.568 0.14933,-3.061334 0.0747,-1.269333 0.0747,-2.389329 0.0747,-1.19467 0.0747,-2.464 0,-4.33067 -0.0747,-7.98934 -0.0747,-3.65866 -0.14934,-6.57066 0,-0.52267 0,-1.26934 0,-0.82133 -0.0747,-1.568 0,-0.82133 0,-1.49333 0,-0.74667 0,-1.19467 1.26933,0.37334 2.38933,0.59734 1.19467,0.14933 1.792,0.14933 0.37333,0 1.41867,-0.224 1.12,-0.29867 2.464,-0.672 -0.224,2.09067 -0.37334,5.00267 -0.14933,2.912 -0.29866,6.34666 -0.0747,3.43467 -0.14934,7.24267 0,3.808 0,7.615999 0,3.36 0.14934,7.018667 0.14933,3.658666 1.12,6.72 0.97066,2.986666 3.06133,5.002666 2.16533,1.941333 6.048,1.941333 2.53867,0 4.256,-1.045333 1.792,-1.045333 2.912,-2.762666 1.12,-1.792 1.71733,-4.032 0.59734,-2.314667 0.896,-4.704 0.29867,-2.464 0.29867,-4.853333 0.0747,-2.464 0.0747,-4.554667 z"
       style="font-size:74.66666412px;fill:#ffffff;fill-opacity:1"
       id="path1501"
       inkscape:connector-curvature="0" />
    <path
       d="m 172.72952,-103.30393 q 0,-4.55467 -0.224,-9.856 -0.14933,-5.376 -0.29867,-10.00534 2.09067,0.224 3.95734,0.37334 1.94133,0.14933 3.50933,0.14933 0.82133,0 1.49333,0 0.74667,-0.0747 1.49334,-0.14933 0.74666,-0.0747 1.49333,-0.14934 0.82133,-0.0747 1.64267,-0.0747 2.53866,0 4.77866,0.672 2.24,0.59733 3.88267,2.09066 1.71733,1.49334 2.688,3.88267 1.04533,2.38933 1.04533,5.97333 0,3.21067 -0.97066,5.67467 -0.97067,2.38933 -2.464,4.18133 -1.49334,1.717336 -3.28534,2.837336 -1.71733,1.12 -3.36,1.717333 0.52267,0.896 1.12,1.941334 0.672,1.045333 1.41867,2.314666 1.41867,2.389333 3.28533,5.6 1.94134,3.136 3.808,6.197333 1.86667,2.986667 3.43467,5.525333 1.568,2.538667 2.38933,3.658667 -2.38933,-0.448 -4.10666,-0.746667 -1.64267,-0.298666 -2.16534,-0.298666 -1.26933,0 -3.88266,0.597333 -0.82134,-1.642667 -2.464,-4.629333 -1.568,-2.986667 -3.50934,-6.346667 -1.86666,-3.434666 -3.95733,-6.794666 -2.016,-3.36 -3.65867,-5.749333 v 3.584 q 0,2.239999 0,4.853333 0.0747,2.538666 0.14934,5.152 0.0747,2.613333 0.14933,5.226666 0.14933,2.538667 0.224,4.778667 -1.26933,-0.298667 -2.31467,-0.522667 -1.04533,-0.149333 -1.71733,-0.149333 -0.59733,0 -1.71733,0.149333 -1.04534,0.224 -2.38934,0.522667 0.0747,-2.24 0.14934,-4.778667 0.14933,-2.613333 0.224,-5.226666 0.0747,-2.613334 0.0747,-5.152 0.0747,-2.613334 0.0747,-4.853333 z m 7.09333,2.912 q 0.59734,0.0747 1.04534,0.0747 0.448,0 1.12,0 1.41866,0 2.912,-0.448 1.568,-0.448 2.83733,-1.49333 1.26933,-1.12 2.09067,-2.912 0.896,-1.86667 0.896,-4.55467 0,-2.31466 -0.672,-3.808 -0.59734,-1.568 -1.64267,-2.464 -0.97067,-0.896 -2.16533,-1.19466 -1.19467,-0.37334 -2.31467,-0.37334 -2.38933,0 -3.808,0.224 0,0.672 0,1.344 0,0.672 -0.0747,1.41867 -0.14933,2.688 -0.224,5.67467 0,2.912 0,5.6 z"
       style="font-size:74.66666412px;fill:#ffffff;fill-opacity:1"
       id="path1503"
       inkscape:connector-curvature="0" />
    <path
       d="m 239.20286,-111.59193 q -0.82133,-1.26934 -1.94133,-2.464 -1.12,-1.26934 -2.53867,-2.24 -1.344,-0.97067 -2.98667,-1.568 -1.64266,-0.59734 -3.43466,-0.59734 -2.98667,0 -5.6,1.26934 -2.53867,1.26933 -4.48,3.88266 -1.86667,2.53867 -2.98667,6.57067 -1.04533,4.032 -1.04533,9.482666 0,9.856 3.808,15.381333 3.808,5.525333 10.60266,5.525333 1.86667,0 3.808,-0.373333 2.016,-0.373334 3.28534,-1.194667 v -3.509333 q 0,-1.045333 0,-2.090667 0.0747,-1.045333 0.0747,-2.165333 0,-1.269333 -0.0747,-2.837333 0,-1.568 -0.0747,-3.136 -0.0747,-1.568 -0.14933,-2.986667 0,-1.493333 -0.0747,-2.613333 1.26933,0.373333 2.31467,0.597333 1.12,0.224 1.71733,0.224 0.448,0 1.344,-0.224 0.896,-0.298666 2.53867,-0.896 -0.0747,0.821334 -0.14934,2.464 -0.0747,1.568 -0.14933,3.733334 0,2.165333 -0.0747,4.853333 0,2.613333 0,5.450666 v 6.645333 q -1.26933,0.597334 -3.136,1.344 -1.86666,0.672 -3.95733,1.269334 -2.016,0.522666 -4.10667,0.896 -2.016,0.373333 -3.65866,0.373333 -5.07734,0 -9.10934,-1.717333 -4.032,-1.717334 -6.86933,-5.077334 -2.83733,-3.359999 -4.40533,-8.362666 -1.49334,-5.002666 -1.49334,-11.573333 0,-6.346666 1.568,-11.274666 1.568,-5.00267 4.48,-8.36267 2.912,-3.43466 6.944,-5.22666 4.10667,-1.792 9.10934,-1.792 2.83733,0 5.152,0.52266 2.31466,0.448 4.18133,1.19467 1.86667,0.672 3.28533,1.568 1.49334,0.896 2.61334,1.71733 -0.52267,1.26934 -0.97067,3.36 -0.448,2.016 -0.59733,3.95734 z"
       style="font-size:74.66666412px;fill:#ffffff;fill-opacity:1"
       id="path1505"
       inkscape:connector-curvature="0" />
    <path
       d="m 249.11387,-97.255934 q 0,-6.346666 1.568,-11.274666 1.568,-5.00267 4.40533,-8.36267 2.83733,-3.43466 6.72,-5.22666 3.88267,-1.792 8.58667,-1.792 4.704,0 8.58666,1.792 3.95733,1.792 6.72,5.22666 2.83733,3.36 4.40533,8.36267 1.568,4.928 1.568,11.274666 0,6.346667 -1.568,11.349333 -1.568,4.928 -4.40533,8.362666 -2.76267,3.434667 -6.72,5.226667 -3.88266,1.792 -8.58666,1.792 -4.704,0 -8.58667,-1.792 -3.88267,-1.792 -6.72,-5.226667 -2.83733,-3.434666 -4.40533,-8.362666 -1.568,-5.002666 -1.568,-11.349333 z m 34.57066,0 q 0,-5.450666 -1.04533,-9.482666 -0.97067,-4.032 -2.76267,-6.57067 -1.792,-2.61333 -4.256,-3.88266 -2.38933,-1.26934 -5.22666,-1.26934 -2.83734,0 -5.22667,1.26934 -2.38933,1.26933 -4.18133,3.88266 -1.792,2.53867 -2.83734,6.57067 -0.97066,4.032 -0.97066,9.482666 0,5.525333 0.97066,9.557333 1.04534,3.957333 2.83734,6.570667 1.792,2.613333 4.18133,3.882666 2.38933,1.269333 5.22667,1.269333 2.83733,0 5.22666,-1.269333 2.464,-1.269333 4.256,-3.882666 1.792,-2.613334 2.76267,-6.570667 1.04533,-4.032 1.04533,-9.557333 z"
       style="font-size:74.66666412px;fill:#ffffff;fill-opacity:1"
       id="path1507"
       inkscape:connector-curvature="0" />
    <path
       d="m 300.70518,-83.666601 q 0.448,1.269333 1.12,2.613333 0.672,1.269333 1.568,2.314667 0.97067,1.045333 2.16533,1.717333 1.19467,0.672 2.61334,0.672 1.41866,0 2.53866,-0.672 1.19467,-0.746667 1.94134,-1.941333 0.82133,-1.194667 1.19466,-2.762667 0.448,-1.642666 0.448,-3.434666 0,-1.941334 -0.59733,-3.285334 -0.59733,-1.418666 -1.568,-2.389333 -0.896,-1.045333 -2.16533,-1.792 -1.19467,-0.746666 -2.53867,-1.493333 -1.792,-0.970667 -3.50933,-2.016 -1.71734,-1.12 -3.136,-2.762667 -1.41867,-1.717329 -2.31467,-4.106669 -0.82133,-2.464 -0.82133,-6.12266 0,-3.28534 0.896,-5.97334 0.896,-2.76266 2.53866,-4.704 1.71734,-1.94133 4.10667,-2.98666 2.38933,-1.12 5.376,-1.12 2.83733,0 5.07733,1.12 2.31467,1.04533 4.40534,3.28533 -0.672,1.71733 -1.12,3.43467 -0.448,1.71733 -0.82134,4.256 h -2.912 q -0.224,-0.97067 -0.672,-2.09067 -0.448,-1.19467 -1.04533,-2.16533 -0.59733,-1.04534 -1.49333,-1.71734 -0.896,-0.672 -2.016,-0.672 -2.31467,0 -3.88267,2.016 -1.568,2.016 -1.568,5.30134 0,2.016 0.59733,3.50933 0.59734,1.41867 1.568,2.464 1.04534,0.97067 2.31467,1.792 1.26933,0.74667 2.61333,1.41867 1.792,0.97066 3.50934,2.015996 1.71733,1.045333 3.06133,2.613333 1.41867,1.568 2.24,3.882667 0.896,2.24 0.896,5.6 0,3.509333 -1.04533,6.72 -0.97067,3.135999 -2.83734,5.525333 -1.792,2.314666 -4.48,3.733333 -2.688,1.344 -6.048,1.344 -3.73333,0 -6.19733,-1.568 -2.464,-1.568 -4.18133,-3.434667 0.59733,-1.866666 0.82133,-3.584 0.224,-1.717333 0.448,-4.554666 z"
       style="font-size:74.66666412px;fill:#ffffff;fill-opacity:1"
       id="path1509"
       inkscape:connector-curvature="0" />
  </g>
</svg>
